%TF.GenerationSoftware,KiCad,Pcbnew,9.0.0*%
%TF.CreationDate,2025-03-04T09:46:30-08:00*%
%TF.ProjectId,Lattice Solenoid Driver,4c617474-6963-4652-9053-6f6c656e6f69,rev?*%
%TF.SameCoordinates,Original*%
%TF.FileFunction,Soldermask,Top*%
%TF.FilePolarity,Negative*%
%FSLAX46Y46*%
G04 Gerber Fmt 4.6, Leading zero omitted, Abs format (unit mm)*
G04 Created by KiCad (PCBNEW 9.0.0) date 2025-03-04 09:46:30*
%MOMM*%
%LPD*%
G01*
G04 APERTURE LIST*
G04 Aperture macros list*
%AMRoundRect*
0 Rectangle with rounded corners*
0 $1 Rounding radius*
0 $2 $3 $4 $5 $6 $7 $8 $9 X,Y pos of 4 corners*
0 Add a 4 corners polygon primitive as box body*
4,1,4,$2,$3,$4,$5,$6,$7,$8,$9,$2,$3,0*
0 Add four circle primitives for the rounded corners*
1,1,$1+$1,$2,$3*
1,1,$1+$1,$4,$5*
1,1,$1+$1,$6,$7*
1,1,$1+$1,$8,$9*
0 Add four rect primitives between the rounded corners*
20,1,$1+$1,$2,$3,$4,$5,0*
20,1,$1+$1,$4,$5,$6,$7,0*
20,1,$1+$1,$6,$7,$8,$9,0*
20,1,$1+$1,$8,$9,$2,$3,0*%
%AMFreePoly0*
4,1,23,0.550000,-0.750000,0.000000,-0.750000,0.000000,-0.745722,-0.065263,-0.745722,-0.191342,-0.711940,-0.304381,-0.646677,-0.396677,-0.554381,-0.461940,-0.441342,-0.495722,-0.315263,-0.495722,-0.250000,-0.500000,-0.250000,-0.500000,0.250000,-0.495722,0.250000,-0.495722,0.315263,-0.461940,0.441342,-0.396677,0.554381,-0.304381,0.646677,-0.191342,0.711940,-0.065263,0.745722,0.000000,0.745722,
0.000000,0.750000,0.550000,0.750000,0.550000,-0.750000,0.550000,-0.750000,$1*%
%AMFreePoly1*
4,1,23,0.000000,0.745722,0.065263,0.745722,0.191342,0.711940,0.304381,0.646677,0.396677,0.554381,0.461940,0.441342,0.495722,0.315263,0.495722,0.250000,0.500000,0.250000,0.500000,-0.250000,0.495722,-0.250000,0.495722,-0.315263,0.461940,-0.441342,0.396677,-0.554381,0.304381,-0.646677,0.191342,-0.711940,0.065263,-0.745722,0.000000,-0.745722,0.000000,-0.750000,-0.550000,-0.750000,
-0.550000,0.750000,0.000000,0.750000,0.000000,0.745722,0.000000,0.745722,$1*%
G04 Aperture macros list end*
%ADD10RoundRect,0.250000X-0.475000X0.250000X-0.475000X-0.250000X0.475000X-0.250000X0.475000X0.250000X0*%
%ADD11RoundRect,0.250000X-0.250000X-0.475000X0.250000X-0.475000X0.250000X0.475000X-0.250000X0.475000X0*%
%ADD12C,3.600000*%
%ADD13C,5.600000*%
%ADD14RoundRect,0.250000X0.250000X0.475000X-0.250000X0.475000X-0.250000X-0.475000X0.250000X-0.475000X0*%
%ADD15R,1.750000X0.450000*%
%ADD16RoundRect,0.250000X0.475000X-0.250000X0.475000X0.250000X-0.475000X0.250000X-0.475000X-0.250000X0*%
%ADD17R,1.700000X1.700000*%
%ADD18O,1.700000X1.700000*%
%ADD19R,0.355600X1.473200*%
%ADD20R,5.283200X2.413000*%
%ADD21FreePoly0,90.000000*%
%ADD22R,1.500000X1.000000*%
%ADD23FreePoly1,90.000000*%
%ADD24RoundRect,0.250000X-0.450000X0.262500X-0.450000X-0.262500X0.450000X-0.262500X0.450000X0.262500X0*%
%ADD25R,1.473200X0.355600*%
%ADD26R,2.413000X5.283200*%
%ADD27RoundRect,0.250000X0.450000X-0.262500X0.450000X0.262500X-0.450000X0.262500X-0.450000X-0.262500X0*%
G04 APERTURE END LIST*
D10*
%TO.C,C97*%
X123915001Y-131492000D03*
X123915001Y-133392000D03*
%TD*%
%TO.C,C86*%
X153065002Y-131500000D03*
X153065002Y-133400000D03*
%TD*%
D11*
%TO.C,C1*%
X146355000Y-98100000D03*
X148255000Y-98100000D03*
%TD*%
D10*
%TO.C,C62*%
X208950001Y-131384000D03*
X208950001Y-133284000D03*
%TD*%
%TO.C,C19*%
X120180000Y-60750000D03*
X120180000Y-62650000D03*
%TD*%
%TO.C,C53*%
X214530001Y-68508000D03*
X214530001Y-70408000D03*
%TD*%
%TO.C,C54*%
X205180000Y-60750000D03*
X205180000Y-62650000D03*
%TD*%
D12*
%TO.C,H5*%
X220305000Y-57100000D03*
D13*
X220305000Y-57100000D03*
%TD*%
D14*
%TO.C,C119*%
X209897000Y-94750001D03*
X207997000Y-94750001D03*
%TD*%
D15*
%TO.C,U1*%
X151705000Y-92875000D03*
X151705000Y-93525000D03*
X151705000Y-94175000D03*
X151705000Y-94825000D03*
X151705000Y-95475000D03*
X151705000Y-96125000D03*
X151705000Y-96775000D03*
X151705000Y-97425000D03*
X151705000Y-98075000D03*
X151705000Y-98725000D03*
X151705000Y-99375000D03*
X151705000Y-100025000D03*
X151705000Y-100675000D03*
X151705000Y-101325000D03*
X158905000Y-101325000D03*
X158905000Y-100675000D03*
X158905000Y-100025000D03*
X158905000Y-99375000D03*
X158905000Y-98725000D03*
X158905000Y-98075000D03*
X158905000Y-97425000D03*
X158905000Y-96775000D03*
X158905000Y-96125000D03*
X158905000Y-95475000D03*
X158905000Y-94825000D03*
X158905000Y-94175000D03*
X158905000Y-93525000D03*
X158905000Y-92875000D03*
%TD*%
D14*
%TO.C,C117*%
X209955000Y-92500000D03*
X208055000Y-92500000D03*
%TD*%
D10*
%TO.C,C28*%
X139430001Y-60808000D03*
X139430001Y-62708000D03*
%TD*%
D16*
%TO.C,C68*%
X196500000Y-133400000D03*
X196500000Y-131500000D03*
%TD*%
D11*
%TO.C,C31*%
X152280002Y-78258000D03*
X154180002Y-78258000D03*
%TD*%
D10*
%TO.C,C113*%
X87465002Y-131500000D03*
X87465002Y-133400000D03*
%TD*%
D16*
%TO.C,C55*%
X209730000Y-62708000D03*
X209730000Y-60808000D03*
%TD*%
D17*
%TO.C,J29*%
X156990000Y-137800000D03*
D18*
X159530000Y-137800000D03*
%TD*%
D10*
%TO.C,C71*%
X189500002Y-131450000D03*
X189500002Y-133350000D03*
%TD*%
D11*
%TO.C,C38*%
X169280002Y-78258000D03*
X171180002Y-78258000D03*
%TD*%
D16*
%TO.C,C37*%
X163579999Y-62700000D03*
X163579999Y-60800000D03*
%TD*%
D10*
%TO.C,C35*%
X156430001Y-60808000D03*
X156430001Y-62708000D03*
%TD*%
D14*
%TO.C,C116*%
X202197000Y-101850001D03*
X200297000Y-101850001D03*
%TD*%
%TO.C,C108*%
X96364997Y-115942000D03*
X94464997Y-115942000D03*
%TD*%
D16*
%TO.C,C74*%
X170149999Y-125692000D03*
X170149999Y-123792000D03*
%TD*%
%TO.C,C8*%
X93179999Y-62700000D03*
X93179999Y-60800000D03*
%TD*%
D19*
%TO.C,U5*%
X120230002Y-74542000D03*
X120880001Y-74542000D03*
X121529999Y-74542000D03*
X122180000Y-74542000D03*
X122829999Y-74542000D03*
X123480000Y-74542000D03*
X124129999Y-74542000D03*
X124780000Y-74542000D03*
X125429999Y-74542000D03*
X126080000Y-74542000D03*
X126729999Y-74542000D03*
X127380000Y-74542000D03*
X127380000Y-68700000D03*
X126730001Y-68700000D03*
X126080000Y-68700000D03*
X125430002Y-68700000D03*
X124780000Y-68700000D03*
X124130002Y-68700000D03*
X123480003Y-68700000D03*
X122830002Y-68700000D03*
X122180003Y-68700000D03*
X121530002Y-68700000D03*
X120880003Y-68700000D03*
X120230002Y-68700000D03*
D20*
X123805001Y-71621000D03*
%TD*%
D19*
%TO.C,U11*%
X213449998Y-119550000D03*
X212799999Y-119550000D03*
X212150001Y-119550000D03*
X211500000Y-119550000D03*
X210850001Y-119550000D03*
X210200000Y-119550000D03*
X209550001Y-119550000D03*
X208900000Y-119550000D03*
X208250001Y-119550000D03*
X207600000Y-119550000D03*
X206950001Y-119550000D03*
X206300000Y-119550000D03*
X206300000Y-125392000D03*
X206949999Y-125392000D03*
X207600000Y-125392000D03*
X208249998Y-125392000D03*
X208900000Y-125392000D03*
X209549998Y-125392000D03*
X210199997Y-125392000D03*
X210849998Y-125392000D03*
X211499997Y-125392000D03*
X212149998Y-125392000D03*
X212799997Y-125392000D03*
X213449998Y-125392000D03*
D20*
X209874999Y-122471000D03*
%TD*%
D10*
%TO.C,C64*%
X206500002Y-131392000D03*
X206500002Y-133292000D03*
%TD*%
%TO.C,C21*%
X122430001Y-60808000D03*
X122430001Y-62708000D03*
%TD*%
D16*
%TO.C,C6*%
X90730000Y-62708000D03*
X90730000Y-60808000D03*
%TD*%
D10*
%TO.C,C100*%
X119065002Y-131500000D03*
X119065002Y-133400000D03*
%TD*%
D12*
%TO.C,H4*%
X217205000Y-102200000D03*
D13*
X217205000Y-102200000D03*
%TD*%
D16*
%TO.C,C36*%
X161179999Y-62700000D03*
X161179999Y-60800000D03*
%TD*%
D17*
%TO.C,J10*%
X187270001Y-82100000D03*
D18*
X189810001Y-82100000D03*
X192350001Y-82100000D03*
X194890001Y-82100000D03*
X197430001Y-82100000D03*
%TD*%
D10*
%TO.C,C83*%
X157915001Y-131492000D03*
X157915001Y-133392000D03*
%TD*%
D16*
%TO.C,C109*%
X85114999Y-125692000D03*
X85114999Y-123792000D03*
%TD*%
D10*
%TO.C,C115*%
X192447000Y-90600002D03*
X192447000Y-92500002D03*
%TD*%
D16*
%TO.C,C77*%
X177249999Y-133392000D03*
X177249999Y-131492000D03*
%TD*%
D17*
%TO.C,J27*%
X191100000Y-137750000D03*
D18*
X193640000Y-137750000D03*
%TD*%
D16*
%TO.C,C102*%
X102149999Y-125692000D03*
X102149999Y-123792000D03*
%TD*%
%TO.C,C34*%
X158730000Y-62708000D03*
X158730000Y-60808000D03*
%TD*%
D17*
%TO.C,J4*%
X102270001Y-82100000D03*
D18*
X104810001Y-82100000D03*
X107350001Y-82100000D03*
X109890001Y-82100000D03*
X112430001Y-82100000D03*
%TD*%
D10*
%TO.C,C47*%
X188145000Y-60750000D03*
X188145000Y-62650000D03*
%TD*%
D14*
%TO.C,C66*%
X198399997Y-115892000D03*
X196499997Y-115892000D03*
%TD*%
D21*
%TO.C,JP4*%
X163305000Y-101400000D03*
D22*
X163305000Y-100100000D03*
D23*
X163305000Y-98800000D03*
%TD*%
D10*
%TO.C,C14*%
X105395001Y-60808000D03*
X105395001Y-62708000D03*
%TD*%
%TO.C,C69*%
X191950001Y-131442000D03*
X191950001Y-133342000D03*
%TD*%
%TO.C,C93*%
X136100002Y-131500000D03*
X136100002Y-133400000D03*
%TD*%
D17*
%TO.C,J8*%
X153305001Y-82100000D03*
D18*
X155845001Y-82100000D03*
X158385001Y-82100000D03*
X160925001Y-82100000D03*
X163465001Y-82100000D03*
%TD*%
D12*
%TO.C,H7*%
X80305000Y-137100000D03*
D13*
X80305000Y-137100000D03*
%TD*%
D16*
%TO.C,C44*%
X180579999Y-62700000D03*
X180579999Y-60800000D03*
%TD*%
D10*
%TO.C,C46*%
X197495001Y-68508000D03*
X197495001Y-70408000D03*
%TD*%
D16*
%TO.C,C58*%
X214579999Y-62700000D03*
X214579999Y-60800000D03*
%TD*%
D10*
%TO.C,C32*%
X163530001Y-68508000D03*
X163530001Y-70408000D03*
%TD*%
D15*
%TO.C,U2*%
X123905000Y-101325000D03*
X123905000Y-100675000D03*
X123905000Y-100025000D03*
X123905000Y-99375000D03*
X123905000Y-98725000D03*
X123905000Y-98075000D03*
X123905000Y-97425000D03*
X123905000Y-96775000D03*
X123905000Y-96125000D03*
X123905000Y-95475000D03*
X123905000Y-94825000D03*
X123905000Y-94175000D03*
X123905000Y-93525000D03*
X123905000Y-92875000D03*
X116705000Y-92875000D03*
X116705000Y-93525000D03*
X116705000Y-94175000D03*
X116705000Y-94825000D03*
X116705000Y-95475000D03*
X116705000Y-96125000D03*
X116705000Y-96775000D03*
X116705000Y-97425000D03*
X116705000Y-98075000D03*
X116705000Y-98725000D03*
X116705000Y-99375000D03*
X116705000Y-100025000D03*
X116705000Y-100675000D03*
X116705000Y-101325000D03*
%TD*%
D10*
%TO.C,C49*%
X190395001Y-60808000D03*
X190395001Y-62708000D03*
%TD*%
%TO.C,C40*%
X171180000Y-60750000D03*
X171180000Y-62650000D03*
%TD*%
D12*
%TO.C,H6*%
X220305000Y-137100000D03*
D13*
X220305000Y-137100000D03*
%TD*%
D19*
%TO.C,U16*%
X128414998Y-119658000D03*
X127764999Y-119658000D03*
X127115001Y-119658000D03*
X126465000Y-119658000D03*
X125815001Y-119658000D03*
X125165000Y-119658000D03*
X124515001Y-119658000D03*
X123865000Y-119658000D03*
X123215001Y-119658000D03*
X122565000Y-119658000D03*
X121915001Y-119658000D03*
X121265000Y-119658000D03*
X121265000Y-125500000D03*
X121914999Y-125500000D03*
X122565000Y-125500000D03*
X123214998Y-125500000D03*
X123865000Y-125500000D03*
X124514998Y-125500000D03*
X125164997Y-125500000D03*
X125814998Y-125500000D03*
X126464997Y-125500000D03*
X127114998Y-125500000D03*
X127764997Y-125500000D03*
X128414998Y-125500000D03*
D20*
X124839999Y-122579000D03*
%TD*%
D10*
%TO.C,C4*%
X95530001Y-68508000D03*
X95530001Y-70408000D03*
%TD*%
D16*
%TO.C,C89*%
X145500000Y-133450000D03*
X145500000Y-131550000D03*
%TD*%
D10*
%TO.C,C79*%
X170100002Y-131500000D03*
X170100002Y-133400000D03*
%TD*%
D17*
%TO.C,J19*%
X95339998Y-112100000D03*
D18*
X92799998Y-112100000D03*
X90259998Y-112100000D03*
X87719998Y-112100000D03*
X85179998Y-112100000D03*
%TD*%
D17*
%TO.C,J20*%
X125630000Y-56385913D03*
D18*
X123090000Y-56385913D03*
%TD*%
D14*
%TO.C,C87*%
X147399997Y-115942000D03*
X145499997Y-115942000D03*
%TD*%
D17*
%TO.C,J14*%
X180374998Y-112100000D03*
D18*
X177834998Y-112100000D03*
X175294998Y-112100000D03*
X172754998Y-112100000D03*
X170214998Y-112100000D03*
%TD*%
D11*
%TO.C,C121*%
X208005000Y-101899998D03*
X209905000Y-101899998D03*
%TD*%
D19*
%TO.C,U7*%
X154230002Y-74542000D03*
X154880001Y-74542000D03*
X155529999Y-74542000D03*
X156180000Y-74542000D03*
X156829999Y-74542000D03*
X157480000Y-74542000D03*
X158129999Y-74542000D03*
X158780000Y-74542000D03*
X159429999Y-74542000D03*
X160080000Y-74542000D03*
X160729999Y-74542000D03*
X161380000Y-74542000D03*
X161380000Y-68700000D03*
X160730001Y-68700000D03*
X160080000Y-68700000D03*
X159430002Y-68700000D03*
X158780000Y-68700000D03*
X158130002Y-68700000D03*
X157480003Y-68700000D03*
X156830002Y-68700000D03*
X156180003Y-68700000D03*
X155530002Y-68700000D03*
X154880003Y-68700000D03*
X154230002Y-68700000D03*
D20*
X157805001Y-71621000D03*
%TD*%
D17*
%TO.C,J21*%
X142680000Y-56400000D03*
D18*
X140140000Y-56400000D03*
%TD*%
D19*
%TO.C,U8*%
X171230002Y-74542000D03*
X171880001Y-74542000D03*
X172529999Y-74542000D03*
X173180000Y-74542000D03*
X173829999Y-74542000D03*
X174480000Y-74542000D03*
X175129999Y-74542000D03*
X175780000Y-74542000D03*
X176429999Y-74542000D03*
X177080000Y-74542000D03*
X177729999Y-74542000D03*
X178380000Y-74542000D03*
X178380000Y-68700000D03*
X177730001Y-68700000D03*
X177080000Y-68700000D03*
X176430002Y-68700000D03*
X175780000Y-68700000D03*
X175130002Y-68700000D03*
X174480003Y-68700000D03*
X173830002Y-68700000D03*
X173180003Y-68700000D03*
X172530002Y-68700000D03*
X171880003Y-68700000D03*
X171230002Y-68700000D03*
D20*
X174805001Y-71621000D03*
%TD*%
D10*
%TO.C,C107*%
X102100002Y-131500000D03*
X102100002Y-133400000D03*
%TD*%
D17*
%TO.C,J25*%
X210680000Y-56400000D03*
D18*
X208140000Y-56400000D03*
%TD*%
D14*
%TO.C,C73*%
X181399997Y-115942000D03*
X179499997Y-115942000D03*
%TD*%
D11*
%TO.C,C24*%
X135280002Y-78258000D03*
X137180002Y-78258000D03*
%TD*%
D16*
%TO.C,C41*%
X175730000Y-62708000D03*
X175730000Y-60808000D03*
%TD*%
%TO.C,C105*%
X109249999Y-133392000D03*
X109249999Y-131492000D03*
%TD*%
D21*
%TO.C,JP1*%
X167305000Y-101400000D03*
D22*
X167305000Y-100100000D03*
D23*
X167305000Y-98800000D03*
%TD*%
D16*
%TO.C,C61*%
X213500000Y-133342000D03*
X213500000Y-131442000D03*
%TD*%
D10*
%TO.C,C42*%
X173430001Y-60808000D03*
X173430001Y-62708000D03*
%TD*%
D19*
%TO.C,U18*%
X94414998Y-119658000D03*
X93764999Y-119658000D03*
X93115001Y-119658000D03*
X92465000Y-119658000D03*
X91815001Y-119658000D03*
X91165000Y-119658000D03*
X90515001Y-119658000D03*
X89865000Y-119658000D03*
X89215001Y-119658000D03*
X88565000Y-119658000D03*
X87915001Y-119658000D03*
X87265000Y-119658000D03*
X87265000Y-125500000D03*
X87914999Y-125500000D03*
X88565000Y-125500000D03*
X89214998Y-125500000D03*
X89865000Y-125500000D03*
X90514998Y-125500000D03*
X91164997Y-125500000D03*
X91814998Y-125500000D03*
X92464997Y-125500000D03*
X93114998Y-125500000D03*
X93764997Y-125500000D03*
X94414998Y-125500000D03*
D20*
X90839999Y-122579000D03*
%TD*%
D16*
%TO.C,C60*%
X204149999Y-125584000D03*
X204149999Y-123684000D03*
%TD*%
%TO.C,C110*%
X94465000Y-133450000D03*
X94465000Y-131550000D03*
%TD*%
D10*
%TO.C,C12*%
X103145000Y-60750000D03*
X103145000Y-62650000D03*
%TD*%
D17*
%TO.C,J30*%
X140051508Y-137819491D03*
D18*
X142591508Y-137819491D03*
%TD*%
D19*
%TO.C,U17*%
X111449998Y-119658000D03*
X110799999Y-119658000D03*
X110150001Y-119658000D03*
X109500000Y-119658000D03*
X108850001Y-119658000D03*
X108200000Y-119658000D03*
X107550001Y-119658000D03*
X106900000Y-119658000D03*
X106250001Y-119658000D03*
X105600000Y-119658000D03*
X104950001Y-119658000D03*
X104300000Y-119658000D03*
X104300000Y-125500000D03*
X104949999Y-125500000D03*
X105600000Y-125500000D03*
X106249998Y-125500000D03*
X106900000Y-125500000D03*
X107549998Y-125500000D03*
X108199997Y-125500000D03*
X108849998Y-125500000D03*
X109499997Y-125500000D03*
X110149998Y-125500000D03*
X110799997Y-125500000D03*
X111449998Y-125500000D03*
D20*
X107874999Y-122579000D03*
%TD*%
D19*
%TO.C,U14*%
X162414998Y-119658000D03*
X161764999Y-119658000D03*
X161115001Y-119658000D03*
X160465000Y-119658000D03*
X159815001Y-119658000D03*
X159165000Y-119658000D03*
X158515001Y-119658000D03*
X157865000Y-119658000D03*
X157215001Y-119658000D03*
X156565000Y-119658000D03*
X155915001Y-119658000D03*
X155265000Y-119658000D03*
X155265000Y-125500000D03*
X155914999Y-125500000D03*
X156565000Y-125500000D03*
X157214998Y-125500000D03*
X157865000Y-125500000D03*
X158514998Y-125500000D03*
X159164997Y-125500000D03*
X159814998Y-125500000D03*
X160464997Y-125500000D03*
X161114998Y-125500000D03*
X161764997Y-125500000D03*
X162414998Y-125500000D03*
D20*
X158839999Y-122579000D03*
%TD*%
D17*
%TO.C,J12*%
X214374998Y-111992000D03*
D18*
X211834998Y-111992000D03*
X209294998Y-111992000D03*
X206754998Y-111992000D03*
X204214998Y-111992000D03*
%TD*%
D16*
%TO.C,C81*%
X153114999Y-125692000D03*
X153114999Y-123792000D03*
%TD*%
D17*
%TO.C,J26*%
X208025000Y-137650000D03*
D18*
X210565000Y-137650000D03*
%TD*%
D16*
%TO.C,C70*%
X194249999Y-133342000D03*
X194249999Y-131442000D03*
%TD*%
%TO.C,C20*%
X124730000Y-62708000D03*
X124730000Y-60808000D03*
%TD*%
D10*
%TO.C,C99*%
X121465002Y-131500000D03*
X121465002Y-133400000D03*
%TD*%
D16*
%TO.C,C63*%
X211249999Y-133284000D03*
X211249999Y-131384000D03*
%TD*%
D10*
%TO.C,C18*%
X129530001Y-68508000D03*
X129530001Y-70408000D03*
%TD*%
D16*
%TO.C,C50*%
X195144999Y-62700000D03*
X195144999Y-60800000D03*
%TD*%
%TO.C,C95*%
X119114999Y-125692000D03*
X119114999Y-123792000D03*
%TD*%
D17*
%TO.C,J11*%
X204305001Y-82100000D03*
D18*
X206845001Y-82100000D03*
X209385001Y-82100000D03*
X211925001Y-82100000D03*
X214465001Y-82100000D03*
%TD*%
D19*
%TO.C,U15*%
X145449998Y-119658000D03*
X144799999Y-119658000D03*
X144150001Y-119658000D03*
X143500000Y-119658000D03*
X142850001Y-119658000D03*
X142200000Y-119658000D03*
X141550001Y-119658000D03*
X140900000Y-119658000D03*
X140250001Y-119658000D03*
X139600000Y-119658000D03*
X138950001Y-119658000D03*
X138300000Y-119658000D03*
X138300000Y-125500000D03*
X138949999Y-125500000D03*
X139600000Y-125500000D03*
X140249998Y-125500000D03*
X140900000Y-125500000D03*
X141549998Y-125500000D03*
X142199997Y-125500000D03*
X142849998Y-125500000D03*
X143499997Y-125500000D03*
X144149998Y-125500000D03*
X144799997Y-125500000D03*
X145449998Y-125500000D03*
D20*
X141874999Y-122579000D03*
%TD*%
D17*
%TO.C,J2*%
X91630001Y-56358000D03*
D18*
X89090001Y-56358000D03*
%TD*%
D17*
%TO.C,J34*%
X188605000Y-91625002D03*
D18*
X188605000Y-94165002D03*
X188605000Y-96705002D03*
X188605000Y-99245002D03*
X188605000Y-101785002D03*
%TD*%
D10*
%TO.C,C25*%
X146530001Y-68508000D03*
X146530001Y-70408000D03*
%TD*%
D11*
%TO.C,C45*%
X186245002Y-78258000D03*
X188145002Y-78258000D03*
%TD*%
D19*
%TO.C,U9*%
X188195002Y-74542000D03*
X188845001Y-74542000D03*
X189494999Y-74542000D03*
X190145000Y-74542000D03*
X190794999Y-74542000D03*
X191445000Y-74542000D03*
X192094999Y-74542000D03*
X192745000Y-74542000D03*
X193394999Y-74542000D03*
X194045000Y-74542000D03*
X194694999Y-74542000D03*
X195345000Y-74542000D03*
X195345000Y-68700000D03*
X194695001Y-68700000D03*
X194045000Y-68700000D03*
X193395002Y-68700000D03*
X192745000Y-68700000D03*
X192095002Y-68700000D03*
X191445003Y-68700000D03*
X190795002Y-68700000D03*
X190145003Y-68700000D03*
X189495002Y-68700000D03*
X188845003Y-68700000D03*
X188195002Y-68700000D03*
D20*
X191770001Y-71621000D03*
%TD*%
D16*
%TO.C,C112*%
X92214999Y-133392000D03*
X92214999Y-131492000D03*
%TD*%
D17*
%TO.C,J7*%
X136305001Y-82100000D03*
D18*
X138845001Y-82100000D03*
X141385001Y-82100000D03*
X143925001Y-82100000D03*
X146465001Y-82100000D03*
%TD*%
D11*
%TO.C,C10*%
X101245002Y-78258000D03*
X103145002Y-78258000D03*
%TD*%
D17*
%TO.C,J5*%
X108620000Y-56500000D03*
D18*
X106080000Y-56500000D03*
%TD*%
D10*
%TO.C,C104*%
X106950001Y-131492000D03*
X106950001Y-133392000D03*
%TD*%
D16*
%TO.C,C27*%
X141730000Y-62708000D03*
X141730000Y-60808000D03*
%TD*%
D17*
%TO.C,J3*%
X85305001Y-82100000D03*
D18*
X87845001Y-82100000D03*
X90385001Y-82100000D03*
X92925001Y-82100000D03*
X95465001Y-82100000D03*
%TD*%
D16*
%TO.C,C9*%
X95579999Y-62700000D03*
X95579999Y-60800000D03*
%TD*%
D12*
%TO.C,H2*%
X87305000Y-91100000D03*
D13*
X87305000Y-91100000D03*
%TD*%
D24*
%TO.C,R1*%
X100755000Y-98800000D03*
X100755000Y-100625000D03*
%TD*%
D17*
%TO.C,J13*%
X197374998Y-112050000D03*
D18*
X194834998Y-112050000D03*
X192294998Y-112050000D03*
X189754998Y-112050000D03*
X187214998Y-112050000D03*
%TD*%
D17*
%TO.C,J24*%
X193620000Y-56400000D03*
D18*
X191080000Y-56400000D03*
%TD*%
D16*
%TO.C,C91*%
X143249999Y-133392000D03*
X143249999Y-131492000D03*
%TD*%
%TO.C,C48*%
X192695000Y-62708000D03*
X192695000Y-60808000D03*
%TD*%
D12*
%TO.C,H3*%
X217205000Y-92100000D03*
D13*
X217205000Y-92100000D03*
%TD*%
D10*
%TO.C,C92*%
X138500002Y-131500000D03*
X138500002Y-133400000D03*
%TD*%
D17*
%TO.C,J9*%
X170305001Y-82100000D03*
D18*
X172845001Y-82100000D03*
X175385001Y-82100000D03*
X177925001Y-82100000D03*
X180465001Y-82100000D03*
%TD*%
D16*
%TO.C,C96*%
X128465000Y-133450000D03*
X128465000Y-131550000D03*
%TD*%
D11*
%TO.C,C17*%
X118280002Y-78258000D03*
X120180002Y-78258000D03*
%TD*%
D10*
%TO.C,C85*%
X155465002Y-131500000D03*
X155465002Y-133400000D03*
%TD*%
D14*
%TO.C,C59*%
X215399997Y-115834000D03*
X213499997Y-115834000D03*
%TD*%
D10*
%TO.C,C11*%
X112495001Y-68508000D03*
X112495001Y-70408000D03*
%TD*%
D17*
%TO.C,J16*%
X146374998Y-112100000D03*
D18*
X143834998Y-112100000D03*
X141294998Y-112100000D03*
X138754998Y-112100000D03*
X136214998Y-112100000D03*
%TD*%
D19*
%TO.C,U10*%
X205230002Y-74542000D03*
X205880001Y-74542000D03*
X206529999Y-74542000D03*
X207180000Y-74542000D03*
X207829999Y-74542000D03*
X208480000Y-74542000D03*
X209129999Y-74542000D03*
X209780000Y-74542000D03*
X210429999Y-74542000D03*
X211080000Y-74542000D03*
X211729999Y-74542000D03*
X212380000Y-74542000D03*
X212380000Y-68700000D03*
X211730001Y-68700000D03*
X211080000Y-68700000D03*
X210430002Y-68700000D03*
X209780000Y-68700000D03*
X209130002Y-68700000D03*
X208480003Y-68700000D03*
X207830002Y-68700000D03*
X207180003Y-68700000D03*
X206530002Y-68700000D03*
X205880003Y-68700000D03*
X205230002Y-68700000D03*
D20*
X208805001Y-71621000D03*
%TD*%
D10*
%TO.C,C72*%
X187100002Y-131450000D03*
X187100002Y-133350000D03*
%TD*%
D16*
%TO.C,C23*%
X129579999Y-62700000D03*
X129579999Y-60800000D03*
%TD*%
D12*
%TO.C,H1*%
X87305000Y-103100000D03*
D13*
X87305000Y-103100000D03*
%TD*%
D17*
%TO.C,J18*%
X112374998Y-112100000D03*
D18*
X109834998Y-112100000D03*
X107294998Y-112100000D03*
X104754998Y-112100000D03*
X102214998Y-112100000D03*
%TD*%
D16*
%TO.C,C67*%
X187149999Y-125642000D03*
X187149999Y-123742000D03*
%TD*%
D10*
%TO.C,C26*%
X137180000Y-60750000D03*
X137180000Y-62650000D03*
%TD*%
D16*
%TO.C,C22*%
X127179999Y-62700000D03*
X127179999Y-60800000D03*
%TD*%
D19*
%TO.C,U4*%
X103195002Y-74542000D03*
X103845001Y-74542000D03*
X104494999Y-74542000D03*
X105145000Y-74542000D03*
X105794999Y-74542000D03*
X106445000Y-74542000D03*
X107094999Y-74542000D03*
X107745000Y-74542000D03*
X108394999Y-74542000D03*
X109045000Y-74542000D03*
X109694999Y-74542000D03*
X110345000Y-74542000D03*
X110345000Y-68700000D03*
X109695001Y-68700000D03*
X109045000Y-68700000D03*
X108395002Y-68700000D03*
X107745000Y-68700000D03*
X107095002Y-68700000D03*
X106445003Y-68700000D03*
X105795002Y-68700000D03*
X105145003Y-68700000D03*
X104495002Y-68700000D03*
X103845003Y-68700000D03*
X103195002Y-68700000D03*
D20*
X106770001Y-71621000D03*
%TD*%
D10*
%TO.C,C111*%
X89915001Y-131492000D03*
X89915001Y-133392000D03*
%TD*%
D11*
%TO.C,C52*%
X203280002Y-78258000D03*
X205180002Y-78258000D03*
%TD*%
D10*
%TO.C,C65*%
X204100002Y-131392000D03*
X204100002Y-133292000D03*
%TD*%
D16*
%TO.C,C98*%
X126214999Y-133392000D03*
X126214999Y-131492000D03*
%TD*%
%TO.C,C29*%
X144179999Y-62700000D03*
X144179999Y-60800000D03*
%TD*%
%TO.C,C82*%
X162465000Y-133450000D03*
X162465000Y-131550000D03*
%TD*%
D19*
%TO.C,U12*%
X196449998Y-119608000D03*
X195799999Y-119608000D03*
X195150001Y-119608000D03*
X194500000Y-119608000D03*
X193850001Y-119608000D03*
X193200000Y-119608000D03*
X192550001Y-119608000D03*
X191900000Y-119608000D03*
X191250001Y-119608000D03*
X190600000Y-119608000D03*
X189950001Y-119608000D03*
X189300000Y-119608000D03*
X189300000Y-125450000D03*
X189949999Y-125450000D03*
X190600000Y-125450000D03*
X191249998Y-125450000D03*
X191900000Y-125450000D03*
X192549998Y-125450000D03*
X193199997Y-125450000D03*
X193849998Y-125450000D03*
X194499997Y-125450000D03*
X195149998Y-125450000D03*
X195799997Y-125450000D03*
X196449998Y-125450000D03*
D20*
X192874999Y-122529000D03*
%TD*%
D16*
%TO.C,C43*%
X178179999Y-62700000D03*
X178179999Y-60800000D03*
%TD*%
%TO.C,C15*%
X110144999Y-62700000D03*
X110144999Y-60800000D03*
%TD*%
%TO.C,C13*%
X107695000Y-62708000D03*
X107695000Y-60808000D03*
%TD*%
D17*
%TO.C,J33*%
X88965000Y-137800000D03*
D18*
X91505000Y-137800000D03*
%TD*%
D17*
%TO.C,J6*%
X119305001Y-82100000D03*
D18*
X121845001Y-82100000D03*
X124385001Y-82100000D03*
X126925001Y-82100000D03*
X129465001Y-82100000D03*
%TD*%
D11*
%TO.C,C118*%
X207997000Y-97049999D03*
X209897000Y-97049999D03*
%TD*%
D17*
%TO.C,J23*%
X176655000Y-56400000D03*
D18*
X174115000Y-56400000D03*
%TD*%
D11*
%TO.C,C3*%
X84280002Y-78258000D03*
X86180002Y-78258000D03*
%TD*%
D14*
%TO.C,C101*%
X113399997Y-115942000D03*
X111499997Y-115942000D03*
%TD*%
D16*
%TO.C,C51*%
X197544999Y-62700000D03*
X197544999Y-60800000D03*
%TD*%
D10*
%TO.C,C90*%
X140950001Y-131492000D03*
X140950001Y-133392000D03*
%TD*%
D11*
%TO.C,C120*%
X208005000Y-99499998D03*
X209905000Y-99499998D03*
%TD*%
D10*
%TO.C,C114*%
X85065002Y-131500000D03*
X85065002Y-133400000D03*
%TD*%
D16*
%TO.C,C16*%
X112544999Y-62700000D03*
X112544999Y-60800000D03*
%TD*%
D10*
%TO.C,C39*%
X180530001Y-68508000D03*
X180530001Y-70408000D03*
%TD*%
D21*
%TO.C,JP2*%
X108305000Y-95400000D03*
D22*
X108305000Y-94100000D03*
D23*
X108305000Y-92800000D03*
%TD*%
D17*
%TO.C,J32*%
X106000000Y-137800000D03*
D18*
X108540000Y-137800000D03*
%TD*%
D10*
%TO.C,C33*%
X154180000Y-60750000D03*
X154180000Y-62650000D03*
%TD*%
D21*
%TO.C,JP6*%
X112305000Y-95400000D03*
D22*
X112305000Y-94100000D03*
D23*
X112305000Y-92800000D03*
%TD*%
D12*
%TO.C,H8*%
X80305000Y-57100000D03*
D13*
X80305000Y-57100000D03*
%TD*%
D14*
%TO.C,C94*%
X130364997Y-115942000D03*
X128464997Y-115942000D03*
%TD*%
D17*
%TO.C,J15*%
X163339998Y-112100000D03*
D18*
X160799998Y-112100000D03*
X158259998Y-112100000D03*
X155719998Y-112100000D03*
X153179998Y-112100000D03*
%TD*%
D17*
%TO.C,J22*%
X159642500Y-56299326D03*
D18*
X157102500Y-56299326D03*
%TD*%
D16*
%TO.C,C88*%
X136149999Y-125692000D03*
X136149999Y-123792000D03*
%TD*%
D10*
%TO.C,C76*%
X174950001Y-131492000D03*
X174950001Y-133392000D03*
%TD*%
D21*
%TO.C,JP3*%
X171305000Y-101400000D03*
D22*
X171305000Y-100100000D03*
D23*
X171305000Y-98800000D03*
%TD*%
D21*
%TO.C,JP5*%
X104305000Y-95400000D03*
D22*
X104305000Y-94100000D03*
D23*
X104305000Y-92800000D03*
%TD*%
D16*
%TO.C,C84*%
X160214999Y-133392000D03*
X160214999Y-131492000D03*
%TD*%
D19*
%TO.C,U6*%
X137230002Y-74542000D03*
X137880001Y-74542000D03*
X138529999Y-74542000D03*
X139180000Y-74542000D03*
X139829999Y-74542000D03*
X140480000Y-74542000D03*
X141129999Y-74542000D03*
X141780000Y-74542000D03*
X142429999Y-74542000D03*
X143080000Y-74542000D03*
X143729999Y-74542000D03*
X144380000Y-74542000D03*
X144380000Y-68700000D03*
X143730001Y-68700000D03*
X143080000Y-68700000D03*
X142430002Y-68700000D03*
X141780000Y-68700000D03*
X141130002Y-68700000D03*
X140480003Y-68700000D03*
X139830002Y-68700000D03*
X139180003Y-68700000D03*
X138530002Y-68700000D03*
X137880003Y-68700000D03*
X137230002Y-68700000D03*
D20*
X140805001Y-71621000D03*
%TD*%
D17*
%TO.C,J28*%
X174000000Y-137800000D03*
D18*
X176540000Y-137800000D03*
%TD*%
D10*
%TO.C,C56*%
X207430001Y-60808000D03*
X207430001Y-62708000D03*
%TD*%
D14*
%TO.C,C80*%
X164364997Y-115942000D03*
X162464997Y-115942000D03*
%TD*%
D25*
%TO.C,U19*%
X196163000Y-92550002D03*
X196163000Y-93200001D03*
X196163000Y-93849999D03*
X196163000Y-94500000D03*
X196163000Y-95149999D03*
X196163000Y-95800000D03*
X196163000Y-96449999D03*
X196163000Y-97100000D03*
X196163000Y-97749999D03*
X196163000Y-98400000D03*
X196163000Y-99049999D03*
X196163000Y-99700000D03*
X202005000Y-99700000D03*
X202005000Y-99050001D03*
X202005000Y-98400000D03*
X202005000Y-97750002D03*
X202005000Y-97100000D03*
X202005000Y-96450002D03*
X202005000Y-95800003D03*
X202005000Y-95150002D03*
X202005000Y-94500003D03*
X202005000Y-93850002D03*
X202005000Y-93200003D03*
X202005000Y-92550002D03*
D26*
X199084000Y-96125001D03*
%TD*%
D17*
%TO.C,J31*%
X122990000Y-137800000D03*
D18*
X125530000Y-137800000D03*
%TD*%
D17*
%TO.C,J1*%
X97155000Y-103100000D03*
D18*
X97155000Y-100560000D03*
X97155000Y-98020000D03*
X97155000Y-95480000D03*
X97155000Y-92940000D03*
X97155000Y-90400000D03*
%TD*%
D27*
%TO.C,R2*%
X100755000Y-96612500D03*
X100755000Y-94787500D03*
%TD*%
D10*
%TO.C,C106*%
X104500002Y-131500000D03*
X104500002Y-133400000D03*
%TD*%
D16*
%TO.C,C103*%
X111500000Y-133450000D03*
X111500000Y-131550000D03*
%TD*%
D10*
%TO.C,C5*%
X86180000Y-60750000D03*
X86180000Y-62650000D03*
%TD*%
D19*
%TO.C,U13*%
X179449998Y-119658000D03*
X178799999Y-119658000D03*
X178150001Y-119658000D03*
X177500000Y-119658000D03*
X176850001Y-119658000D03*
X176200000Y-119658000D03*
X175550001Y-119658000D03*
X174900000Y-119658000D03*
X174250001Y-119658000D03*
X173600000Y-119658000D03*
X172950001Y-119658000D03*
X172300000Y-119658000D03*
X172300000Y-125500000D03*
X172949999Y-125500000D03*
X173600000Y-125500000D03*
X174249998Y-125500000D03*
X174900000Y-125500000D03*
X175549998Y-125500000D03*
X176199997Y-125500000D03*
X176849998Y-125500000D03*
X177499997Y-125500000D03*
X178149998Y-125500000D03*
X178799997Y-125500000D03*
X179449998Y-125500000D03*
D20*
X175874999Y-122579000D03*
%TD*%
D14*
%TO.C,C2*%
X129255000Y-96100000D03*
X127355000Y-96100000D03*
%TD*%
D16*
%TO.C,C30*%
X146579999Y-62700000D03*
X146579999Y-60800000D03*
%TD*%
%TO.C,C57*%
X212179999Y-62700000D03*
X212179999Y-60800000D03*
%TD*%
D19*
%TO.C,U3*%
X86230002Y-74542000D03*
X86880001Y-74542000D03*
X87529999Y-74542000D03*
X88180000Y-74542000D03*
X88829999Y-74542000D03*
X89480000Y-74542000D03*
X90129999Y-74542000D03*
X90780000Y-74542000D03*
X91429999Y-74542000D03*
X92080000Y-74542000D03*
X92729999Y-74542000D03*
X93380000Y-74542000D03*
X93380000Y-68700000D03*
X92730001Y-68700000D03*
X92080000Y-68700000D03*
X91430002Y-68700000D03*
X90780000Y-68700000D03*
X90130002Y-68700000D03*
X89480003Y-68700000D03*
X88830002Y-68700000D03*
X88180003Y-68700000D03*
X87530002Y-68700000D03*
X86880003Y-68700000D03*
X86230002Y-68700000D03*
D20*
X89805001Y-71621000D03*
%TD*%
D10*
%TO.C,C7*%
X88430001Y-60808000D03*
X88430001Y-62708000D03*
%TD*%
D16*
%TO.C,C75*%
X179500000Y-133450000D03*
X179500000Y-131550000D03*
%TD*%
D17*
%TO.C,J17*%
X129339998Y-112100000D03*
D18*
X126799998Y-112100000D03*
X124259998Y-112100000D03*
X121719998Y-112100000D03*
X119179998Y-112100000D03*
%TD*%
D10*
%TO.C,C78*%
X172500002Y-131500000D03*
X172500002Y-133400000D03*
%TD*%
M02*
