M48
; DRILL file {KiCad 9.0.0} date 2025-03-04T09:44:30-0800
; FORMAT={-:-/ absolute / metric / decimal}
; #@! TF.CreationDate,2025-03-04T09:44:30-08:00
; #@! TF.GenerationSoftware,Kicad,Pcbnew,9.0.0
; #@! TF.FileFunction,MixedPlating,1,2
FMAT,2
METRIC
; #@! TA.AperFunction,Plated,PTH,ViaDrill
T1C0.400
; #@! TA.AperFunction,Plated,PTH,ComponentDrill
T2C1.000
; #@! TA.AperFunction,Plated,PTH,ComponentDrill
T3C3.200
%
G90
G05
T1
X83.105Y-131.5
X83.98Y-70.542
X83.98Y-71.442
X83.98Y-72.342
X84.38Y-76.1
X84.465Y-122.058
X84.965Y-134.8
X84.98Y-70.542
X84.98Y-71.442
X84.98Y-72.342
X85.365Y-121.858
X85.98Y-70.542
X85.98Y-71.442
X85.98Y-72.342
X86.165Y-122.458
X86.265Y-134.8
X87.365Y-134.8
X87.455Y-116.9
X87.98Y-66.4
X88.08Y-59.2
X88.215Y-127.242
X88.215Y-128.242
X88.215Y-129.242
X89.165Y-116.5
X89.88Y-65.3
X89.88Y-66.2
X89.88Y-67.1
X90.765Y-127.1
X90.765Y-128.0
X90.765Y-128.9
X91.755Y-77.6
X92.43Y-64.958
X92.43Y-65.958
X92.43Y-66.958
X92.565Y-135.0
X92.665Y-127.8
X93.18Y-59.4
X93.405Y-130.1
X94.28Y-59.4
X94.48Y-71.742
X94.665Y-121.858
X94.665Y-122.758
X94.665Y-123.658
X95.28Y-72.342
X95.555Y-114.3
X95.58Y-59.4
X95.665Y-121.858
X95.665Y-122.758
X95.665Y-123.658
X96.18Y-72.142
X96.265Y-118.1
X96.605Y-109.2
X96.665Y-121.858
X96.665Y-122.758
X96.665Y-123.658
X97.605Y-62.7
X100.005Y-108.0
X100.005Y-131.5
X100.945Y-70.542
X100.945Y-71.442
X100.945Y-72.342
X101.345Y-76.1
X101.386Y-93.131
X101.5Y-122.058
X101.945Y-70.542
X101.945Y-71.442
X101.945Y-72.342
X102.0Y-134.8
X102.4Y-121.858
X102.655Y-98.7
X102.945Y-70.542
X102.945Y-71.442
X102.945Y-72.342
X103.2Y-122.458
X103.3Y-134.8
X103.505Y-108.2
X103.905Y-109.3
X104.305Y-64.4
X104.305Y-97.1
X104.4Y-134.8
X104.455Y-117.1
X104.945Y-66.4
X105.045Y-59.2
X105.25Y-127.242
X105.25Y-128.242
X105.25Y-129.242
X106.2Y-116.5
X106.845Y-65.3
X106.845Y-66.2
X106.845Y-67.1
X107.8Y-127.1
X107.8Y-128.0
X107.8Y-128.9
X108.445Y-77.7
X109.395Y-64.958
X109.395Y-65.958
X109.395Y-66.958
X109.6Y-135.0
X109.7Y-127.8
X110.155Y-59.382
X110.305Y-96.1
X110.505Y-129.9
X111.255Y-59.382
X111.445Y-71.742
X111.7Y-121.858
X111.7Y-122.758
X111.7Y-123.658
X112.245Y-72.342
X112.455Y-114.1
X112.555Y-59.382
X112.7Y-121.858
X112.7Y-122.758
X112.7Y-123.658
X113.145Y-72.142
X113.3Y-118.1
X113.7Y-121.858
X113.7Y-122.758
X113.7Y-123.658
X114.305Y-82.1
X114.305Y-85.1
X114.305Y-95.1
X114.705Y-62.7
X115.305Y-82.1
X115.318Y-85.087
X116.705Y-131.5
X117.405Y-80.1
X117.98Y-70.542
X117.98Y-71.442
X117.98Y-72.342
X118.38Y-76.1
X118.465Y-122.058
X118.655Y-74.125
X118.965Y-134.8
X118.98Y-70.542
X118.98Y-71.442
X118.98Y-72.342
X119.365Y-121.858
X119.98Y-70.542
X119.98Y-71.442
X119.98Y-72.342
X120.165Y-122.458
X120.265Y-134.8
X120.555Y-117.2
X121.365Y-134.8
X121.405Y-64.6
X121.605Y-97.8
X121.705Y-96.3
X121.805Y-94.8
X121.98Y-66.4
X122.08Y-59.2
X122.215Y-127.242
X122.215Y-128.242
X122.215Y-129.242
X123.165Y-116.5
X123.88Y-65.3
X123.88Y-66.2
X123.88Y-67.1
X124.765Y-127.1
X124.765Y-128.0
X124.765Y-128.9
X125.48Y-77.7
X126.43Y-64.958
X126.43Y-65.958
X126.43Y-66.958
X126.565Y-135.0
X126.665Y-127.8
X127.205Y-59.436
X127.305Y-129.8
X127.405Y-76.625
X128.305Y-59.436
X128.48Y-71.742
X128.665Y-121.858
X128.665Y-122.758
X128.665Y-123.658
X129.28Y-72.342
X129.305Y-85.7
X129.305Y-87.4
X129.455Y-114.2
X129.605Y-59.436
X129.665Y-121.858
X129.665Y-122.758
X129.665Y-123.658
X130.18Y-72.142
X130.265Y-118.1
X130.665Y-121.858
X130.665Y-122.758
X130.665Y-123.658
X131.305Y-96.1
X131.405Y-62.7
X132.305Y-80.1
X133.005Y-95.1
X133.305Y-80.1
X133.305Y-90.1
X134.005Y-131.5
X134.205Y-85.6
X134.299Y-87.15
X134.318Y-90.087
X134.805Y-115.0
X134.98Y-70.542
X134.98Y-71.442
X134.98Y-72.342
X135.38Y-76.1
X135.5Y-122.058
X135.98Y-70.542
X135.98Y-71.442
X135.98Y-72.342
X136.052Y-134.819
X136.4Y-121.858
X136.655Y-84.9
X136.98Y-70.542
X136.98Y-71.442
X136.98Y-72.342
X137.2Y-122.458
X137.352Y-134.819
X137.505Y-114.8
X138.305Y-64.6
X138.452Y-134.819
X138.98Y-66.4
X139.08Y-59.2
X139.25Y-127.242
X139.25Y-128.242
X139.25Y-129.242
X139.555Y-88.0
X140.2Y-116.5
X140.88Y-65.3
X140.88Y-66.2
X140.88Y-67.1
X141.8Y-127.1
X141.8Y-128.0
X141.8Y-128.9
X142.48Y-77.7
X143.43Y-64.958
X143.43Y-65.958
X143.43Y-66.958
X143.6Y-135.0
X143.7Y-127.8
X143.955Y-76.7
X144.28Y-59.4
X144.405Y-129.9
X144.742Y-97.538
X145.38Y-59.4
X145.48Y-71.742
X145.7Y-121.858
X145.7Y-122.758
X145.7Y-123.658
X146.205Y-86.0
X146.28Y-72.342
X146.68Y-59.4
X146.7Y-121.858
X146.7Y-122.758
X146.7Y-123.658
X146.955Y-75.2
X147.105Y-87.1
X147.18Y-72.142
X147.3Y-118.1
X147.7Y-121.858
X147.7Y-122.758
X147.7Y-123.658
X148.505Y-62.7
X148.748Y-105.724
X149.705Y-89.4
X149.905Y-98.8
X150.105Y-105.5
X150.305Y-115.4
X150.905Y-91.0
X150.905Y-114.3
X150.905Y-131.5
X151.98Y-70.542
X151.98Y-71.442
X151.98Y-72.342
X152.38Y-76.1
X152.465Y-122.058
X152.965Y-134.8
X152.98Y-70.542
X152.98Y-71.442
X152.98Y-72.342
X153.365Y-121.858
X153.98Y-70.542
X153.98Y-71.442
X153.98Y-72.342
X154.055Y-98.1
X154.165Y-122.458
X154.265Y-134.8
X155.305Y-64.6
X155.365Y-134.8
X155.98Y-66.4
X156.08Y-59.2
X156.215Y-127.242
X156.215Y-128.242
X156.215Y-129.242
X157.165Y-116.5
X157.88Y-65.3
X157.88Y-66.2
X157.88Y-67.1
X158.765Y-127.1
X158.765Y-128.0
X158.765Y-128.9
X159.48Y-77.7
X160.43Y-64.958
X160.43Y-65.958
X160.43Y-66.958
X160.565Y-135.0
X160.665Y-127.8
X161.267Y-59.424
X161.292Y-96.087
X161.305Y-129.9
X161.555Y-100.3
X162.105Y-91.1
X162.305Y-96.1
X162.368Y-59.424
X162.48Y-71.742
X162.665Y-121.858
X162.665Y-122.758
X162.665Y-123.658
X163.005Y-90.2
X163.28Y-72.342
X163.305Y-103.1
X163.665Y-121.858
X163.665Y-122.758
X163.665Y-123.658
X163.667Y-59.424
X164.18Y-72.142
X164.265Y-118.1
X164.665Y-121.858
X164.665Y-122.758
X164.665Y-123.658
X165.255Y-100.4
X165.305Y-62.6
X165.305Y-80.1
X165.505Y-107.4
X165.755Y-98.2
X166.305Y-79.1
X166.505Y-106.6
X166.505Y-115.1
X167.205Y-114.3
X167.305Y-103.1
X168.005Y-131.5
X168.98Y-70.542
X168.98Y-71.442
X168.98Y-72.342
X169.005Y-91.2
X169.255Y-100.4
X169.38Y-76.1
X169.5Y-122.058
X169.505Y-90.2
X169.755Y-97.5
X169.98Y-70.542
X169.98Y-71.442
X169.98Y-72.342
X169.98Y-74.875
X170.0Y-134.8
X170.4Y-121.858
X170.98Y-70.542
X170.98Y-71.442
X170.98Y-72.342
X171.2Y-122.458
X171.3Y-134.8
X171.305Y-103.1
X172.205Y-64.5
X172.4Y-134.8
X172.98Y-66.4
X173.08Y-59.2
X173.25Y-127.242
X173.25Y-128.242
X173.25Y-129.242
X174.2Y-116.5
X174.305Y-90.1
X174.88Y-65.3
X174.88Y-66.2
X174.88Y-67.1
X175.305Y-88.1
X175.8Y-127.1
X175.8Y-128.0
X175.8Y-128.9
X176.305Y-86.1
X176.48Y-77.7
X177.305Y-85.1
X177.43Y-64.958
X177.43Y-65.958
X177.43Y-66.958
X177.6Y-135.0
X177.7Y-127.8
X178.28Y-59.4
X178.405Y-76.925
X178.405Y-129.9
X179.38Y-59.4
X179.48Y-71.742
X179.7Y-121.858
X179.7Y-122.758
X179.7Y-123.658
X180.28Y-72.342
X180.305Y-86.1
X180.68Y-59.4
X180.7Y-121.858
X180.7Y-122.758
X180.7Y-123.658
X181.18Y-72.142
X181.3Y-118.1
X181.305Y-85.1
X181.7Y-121.858
X181.7Y-122.758
X181.7Y-123.658
X182.705Y-62.7
X182.705Y-109.3
X183.605Y-108.4
X183.705Y-114.5
X184.305Y-113.5
X184.805Y-131.5
X185.945Y-70.542
X185.945Y-71.442
X185.945Y-72.342
X186.345Y-76.1
X186.5Y-122.008
X186.945Y-70.542
X186.945Y-71.442
X186.945Y-72.342
X187.0Y-134.75
X187.4Y-121.808
X187.945Y-70.542
X187.945Y-71.442
X187.945Y-72.342
X188.2Y-122.408
X188.3Y-134.75
X189.305Y-64.2
X189.4Y-134.75
X189.945Y-66.4
X190.045Y-59.2
X190.216Y-117.349
X190.25Y-127.192
X190.25Y-128.192
X190.25Y-129.192
X191.405Y-96.4
X191.605Y-97.6
X191.845Y-65.3
X191.845Y-66.2
X191.845Y-67.1
X192.8Y-127.05
X192.8Y-127.95
X192.8Y-128.85
X193.002Y-97.825
X193.445Y-77.7
X194.395Y-64.958
X194.395Y-65.958
X194.395Y-66.958
X194.6Y-134.95
X194.605Y-90.7
X194.7Y-127.75
X195.245Y-59.4
X195.405Y-129.8
X196.345Y-59.4
X196.445Y-71.742
X196.7Y-121.808
X196.7Y-122.708
X196.7Y-123.608
X197.245Y-72.342
X197.645Y-59.4
X197.7Y-121.808
X197.7Y-122.708
X197.7Y-123.608
X198.145Y-72.142
X198.3Y-118.05
X198.363Y-90.3
X198.363Y-91.3
X198.363Y-92.3
X198.363Y-101.6
X198.563Y-102.5
X198.7Y-121.808
X198.7Y-122.708
X198.7Y-123.608
X198.963Y-100.8
X199.263Y-90.3
X199.263Y-91.3
X199.263Y-92.3
X199.292Y-80.113
X199.705Y-62.7
X199.755Y-83.6
X200.163Y-90.3
X200.163Y-91.3
X200.163Y-92.3
X201.905Y-131.4
X202.305Y-103.2
X202.305Y-104.1
X202.98Y-70.542
X202.98Y-71.442
X202.98Y-72.342
X203.155Y-88.7
X203.305Y-103.2
X203.305Y-104.1
X203.38Y-76.1
X203.5Y-121.95
X203.605Y-96.2
X203.747Y-98.75
X203.805Y-102.3
X203.98Y-70.542
X203.98Y-71.442
X203.98Y-72.342
X204.0Y-134.65
X204.305Y-94.3
X204.305Y-101.6
X204.305Y-103.2
X204.305Y-104.1
X204.4Y-121.75
X204.505Y-96.2
X204.705Y-98.7
X204.805Y-102.3
X204.98Y-70.542
X204.98Y-71.442
X204.98Y-72.342
X205.2Y-122.35
X205.3Y-134.65
X205.305Y-101.6
X205.305Y-103.2
X205.305Y-104.1
X205.405Y-96.2
X205.747Y-98.75
X205.805Y-102.4
X206.305Y-101.6
X206.305Y-103.2
X206.305Y-104.1
X206.4Y-134.65
X206.405Y-64.4
X206.805Y-102.4
X206.98Y-66.4
X207.08Y-59.2
X207.25Y-127.134
X207.25Y-128.134
X207.25Y-129.134
X207.305Y-103.2
X207.305Y-104.1
X208.2Y-116.392
X208.88Y-65.3
X208.88Y-66.2
X208.88Y-67.1
X209.8Y-126.992
X209.8Y-127.892
X209.8Y-128.792
X210.48Y-77.7
X210.53Y-105.325
X211.43Y-64.958
X211.43Y-65.958
X211.43Y-66.958
X211.505Y-94.4
X211.53Y-97.5
X211.555Y-100.4
X211.555Y-101.8
X211.6Y-134.892
X211.7Y-127.692
X211.88Y-105.375
X212.28Y-59.4
X212.905Y-92.0
X212.905Y-103.7
X213.38Y-59.4
X213.48Y-71.742
X213.7Y-121.75
X213.7Y-122.65
X213.7Y-123.55
X214.28Y-72.342
X214.68Y-59.4
X214.7Y-121.75
X214.7Y-122.65
X214.7Y-123.55
X215.18Y-72.142
X215.3Y-117.992
X215.7Y-121.75
X215.7Y-122.65
X215.7Y-123.55
X216.605Y-62.7
T2
X85.18Y-112.1
X85.305Y-82.1
X87.72Y-112.1
X87.845Y-82.1
X88.965Y-137.8
X89.09Y-56.358
X90.26Y-112.1
X90.385Y-82.1
X91.505Y-137.8
X91.63Y-56.358
X92.8Y-112.1
X92.925Y-82.1
X95.34Y-112.1
X95.465Y-82.1
X97.155Y-90.4
X97.155Y-92.94
X97.155Y-95.48
X97.155Y-98.02
X97.155Y-100.56
X97.155Y-103.1
X102.215Y-112.1
X102.27Y-82.1
X104.755Y-112.1
X104.81Y-82.1
X106.0Y-137.8
X106.08Y-56.5
X107.295Y-112.1
X107.35Y-82.1
X108.54Y-137.8
X108.62Y-56.5
X109.835Y-112.1
X109.89Y-82.1
X112.375Y-112.1
X112.43Y-82.1
X119.18Y-112.1
X119.305Y-82.1
X121.72Y-112.1
X121.845Y-82.1
X122.99Y-137.8
X123.09Y-56.386
X124.26Y-112.1
X124.385Y-82.1
X125.53Y-137.8
X125.63Y-56.386
X126.8Y-112.1
X126.925Y-82.1
X129.34Y-112.1
X129.465Y-82.1
X136.215Y-112.1
X136.305Y-82.1
X138.755Y-112.1
X138.845Y-82.1
X140.052Y-137.819
X140.14Y-56.4
X141.295Y-112.1
X141.385Y-82.1
X142.592Y-137.819
X142.68Y-56.4
X143.835Y-112.1
X143.925Y-82.1
X146.375Y-112.1
X146.465Y-82.1
X153.18Y-112.1
X153.305Y-82.1
X155.72Y-112.1
X155.845Y-82.1
X156.99Y-137.8
X157.102Y-56.299
X158.26Y-112.1
X158.385Y-82.1
X159.53Y-137.8
X159.642Y-56.299
X160.8Y-112.1
X160.925Y-82.1
X163.34Y-112.1
X163.465Y-82.1
X170.215Y-112.1
X170.305Y-82.1
X172.755Y-112.1
X172.845Y-82.1
X174.0Y-137.8
X174.115Y-56.4
X175.295Y-112.1
X175.385Y-82.1
X176.54Y-137.8
X176.655Y-56.4
X177.835Y-112.1
X177.925Y-82.1
X180.375Y-112.1
X180.465Y-82.1
X187.215Y-112.05
X187.27Y-82.1
X188.605Y-91.625
X188.605Y-94.165
X188.605Y-96.705
X188.605Y-99.245
X188.605Y-101.785
X189.755Y-112.05
X189.81Y-82.1
X191.08Y-56.4
X191.1Y-137.75
X192.295Y-112.05
X192.35Y-82.1
X193.62Y-56.4
X193.64Y-137.75
X194.835Y-112.05
X194.89Y-82.1
X197.375Y-112.05
X197.43Y-82.1
X204.215Y-111.992
X204.305Y-82.1
X206.755Y-111.992
X206.845Y-82.1
X208.025Y-137.65
X208.14Y-56.4
X209.295Y-111.992
X209.385Y-82.1
X210.565Y-137.65
X210.68Y-56.4
X211.835Y-111.992
X211.925Y-82.1
X214.375Y-111.992
X214.465Y-82.1
T3
X80.305Y-57.1
X80.305Y-137.1
X87.305Y-91.1
X87.305Y-103.1
X217.205Y-92.1
X217.205Y-102.2
X220.305Y-57.1
X220.305Y-137.1
M30
