%TF.GenerationSoftware,KiCad,Pcbnew,9.0.0*%
%TF.CreationDate,2025-03-04T09:46:30-08:00*%
%TF.ProjectId,Lattice Solenoid Driver,4c617474-6963-4652-9053-6f6c656e6f69,rev?*%
%TF.SameCoordinates,Original*%
%TF.FileFunction,Soldermask,Bot*%
%TF.FilePolarity,Negative*%
%FSLAX46Y46*%
G04 Gerber Fmt 4.6, Leading zero omitted, Abs format (unit mm)*
G04 Created by KiCad (PCBNEW 9.0.0) date 2025-03-04 09:46:30*
%MOMM*%
%LPD*%
G01*
G04 APERTURE LIST*
%ADD10C,3.600000*%
%ADD11C,5.600000*%
%ADD12R,1.700000X1.700000*%
%ADD13O,1.700000X1.700000*%
G04 APERTURE END LIST*
D10*
%TO.C,H5*%
X220305000Y-57100000D03*
D11*
X220305000Y-57100000D03*
%TD*%
D12*
%TO.C,J29*%
X156990000Y-137800000D03*
D13*
X159530000Y-137800000D03*
%TD*%
D10*
%TO.C,H4*%
X217205000Y-102200000D03*
D11*
X217205000Y-102200000D03*
%TD*%
D12*
%TO.C,J10*%
X187270001Y-82100000D03*
D13*
X189810001Y-82100000D03*
X192350001Y-82100000D03*
X194890001Y-82100000D03*
X197430001Y-82100000D03*
%TD*%
D12*
%TO.C,J27*%
X191100000Y-137750000D03*
D13*
X193640000Y-137750000D03*
%TD*%
D12*
%TO.C,J4*%
X102270001Y-82100000D03*
D13*
X104810001Y-82100000D03*
X107350001Y-82100000D03*
X109890001Y-82100000D03*
X112430001Y-82100000D03*
%TD*%
D12*
%TO.C,J8*%
X153305001Y-82100000D03*
D13*
X155845001Y-82100000D03*
X158385001Y-82100000D03*
X160925001Y-82100000D03*
X163465001Y-82100000D03*
%TD*%
D10*
%TO.C,H7*%
X80305000Y-137100000D03*
D11*
X80305000Y-137100000D03*
%TD*%
D10*
%TO.C,H6*%
X220305000Y-137100000D03*
D11*
X220305000Y-137100000D03*
%TD*%
D12*
%TO.C,J19*%
X95339998Y-112100000D03*
D13*
X92799998Y-112100000D03*
X90259998Y-112100000D03*
X87719998Y-112100000D03*
X85179998Y-112100000D03*
%TD*%
D12*
%TO.C,J20*%
X125630000Y-56385913D03*
D13*
X123090000Y-56385913D03*
%TD*%
D12*
%TO.C,J14*%
X180374998Y-112100000D03*
D13*
X177834998Y-112100000D03*
X175294998Y-112100000D03*
X172754998Y-112100000D03*
X170214998Y-112100000D03*
%TD*%
D12*
%TO.C,J21*%
X142680000Y-56400000D03*
D13*
X140140000Y-56400000D03*
%TD*%
D12*
%TO.C,J25*%
X210680000Y-56400000D03*
D13*
X208140000Y-56400000D03*
%TD*%
D12*
%TO.C,J30*%
X140051508Y-137819491D03*
D13*
X142591508Y-137819491D03*
%TD*%
D12*
%TO.C,J12*%
X214374998Y-111992000D03*
D13*
X211834998Y-111992000D03*
X209294998Y-111992000D03*
X206754998Y-111992000D03*
X204214998Y-111992000D03*
%TD*%
D12*
%TO.C,J26*%
X208025000Y-137650000D03*
D13*
X210565000Y-137650000D03*
%TD*%
D12*
%TO.C,J11*%
X204305001Y-82100000D03*
D13*
X206845001Y-82100000D03*
X209385001Y-82100000D03*
X211925001Y-82100000D03*
X214465001Y-82100000D03*
%TD*%
D12*
%TO.C,J2*%
X91630001Y-56358000D03*
D13*
X89090001Y-56358000D03*
%TD*%
D12*
%TO.C,J34*%
X188605000Y-91625002D03*
D13*
X188605000Y-94165002D03*
X188605000Y-96705002D03*
X188605000Y-99245002D03*
X188605000Y-101785002D03*
%TD*%
D12*
%TO.C,J7*%
X136305001Y-82100000D03*
D13*
X138845001Y-82100000D03*
X141385001Y-82100000D03*
X143925001Y-82100000D03*
X146465001Y-82100000D03*
%TD*%
D12*
%TO.C,J5*%
X108620000Y-56500000D03*
D13*
X106080000Y-56500000D03*
%TD*%
D12*
%TO.C,J3*%
X85305001Y-82100000D03*
D13*
X87845001Y-82100000D03*
X90385001Y-82100000D03*
X92925001Y-82100000D03*
X95465001Y-82100000D03*
%TD*%
D10*
%TO.C,H2*%
X87305000Y-91100000D03*
D11*
X87305000Y-91100000D03*
%TD*%
D12*
%TO.C,J13*%
X197374998Y-112050000D03*
D13*
X194834998Y-112050000D03*
X192294998Y-112050000D03*
X189754998Y-112050000D03*
X187214998Y-112050000D03*
%TD*%
D12*
%TO.C,J24*%
X193620000Y-56400000D03*
D13*
X191080000Y-56400000D03*
%TD*%
D10*
%TO.C,H3*%
X217205000Y-92100000D03*
D11*
X217205000Y-92100000D03*
%TD*%
D12*
%TO.C,J9*%
X170305001Y-82100000D03*
D13*
X172845001Y-82100000D03*
X175385001Y-82100000D03*
X177925001Y-82100000D03*
X180465001Y-82100000D03*
%TD*%
D12*
%TO.C,J16*%
X146374998Y-112100000D03*
D13*
X143834998Y-112100000D03*
X141294998Y-112100000D03*
X138754998Y-112100000D03*
X136214998Y-112100000D03*
%TD*%
D10*
%TO.C,H1*%
X87305000Y-103100000D03*
D11*
X87305000Y-103100000D03*
%TD*%
D12*
%TO.C,J18*%
X112374998Y-112100000D03*
D13*
X109834998Y-112100000D03*
X107294998Y-112100000D03*
X104754998Y-112100000D03*
X102214998Y-112100000D03*
%TD*%
D12*
%TO.C,J33*%
X88965000Y-137800000D03*
D13*
X91505000Y-137800000D03*
%TD*%
D12*
%TO.C,J6*%
X119305001Y-82100000D03*
D13*
X121845001Y-82100000D03*
X124385001Y-82100000D03*
X126925001Y-82100000D03*
X129465001Y-82100000D03*
%TD*%
D12*
%TO.C,J23*%
X176655000Y-56400000D03*
D13*
X174115000Y-56400000D03*
%TD*%
D12*
%TO.C,J32*%
X106000000Y-137800000D03*
D13*
X108540000Y-137800000D03*
%TD*%
D10*
%TO.C,H8*%
X80305000Y-57100000D03*
D11*
X80305000Y-57100000D03*
%TD*%
D12*
%TO.C,J15*%
X163339998Y-112100000D03*
D13*
X160799998Y-112100000D03*
X158259998Y-112100000D03*
X155719998Y-112100000D03*
X153179998Y-112100000D03*
%TD*%
D12*
%TO.C,J22*%
X159642500Y-56299326D03*
D13*
X157102500Y-56299326D03*
%TD*%
D12*
%TO.C,J28*%
X174000000Y-137800000D03*
D13*
X176540000Y-137800000D03*
%TD*%
D12*
%TO.C,J31*%
X122990000Y-137800000D03*
D13*
X125530000Y-137800000D03*
%TD*%
D12*
%TO.C,J1*%
X97155000Y-103100000D03*
D13*
X97155000Y-100560000D03*
X97155000Y-98020000D03*
X97155000Y-95480000D03*
X97155000Y-92940000D03*
X97155000Y-90400000D03*
%TD*%
D12*
%TO.C,J17*%
X129339998Y-112100000D03*
D13*
X126799998Y-112100000D03*
X124259998Y-112100000D03*
X121719998Y-112100000D03*
X119179998Y-112100000D03*
%TD*%
M02*
